<svg xmlns="http://www.w3.org/2000/svg" viewBox="0 0 1280 720" width="1280" height="720">
<defs>
<radialGradient id="g" cx="50%" cy="42%" r="60%"><stop offset="0" stop-color="#ffffff" stop-opacity="0.7"/><stop offset="1" stop-color="#ffffff" stop-opacity="0"/></radialGradient>
<pattern id="p" width="56" height="56" patternUnits="userSpaceOnUse"><path d="M56 0H0V56" fill="none" stroke="#5a3a6e" stroke-opacity="0.06"/></pattern>
<radialGradient id="m" cx="50%" cy="45%" r="55%"><stop offset="0.3" stop-color="#fff"/><stop offset="1" stop-color="#fff" stop-opacity="0"/></radialGradient>
<mask id="k"><rect width="1280" height="720" fill="url(#m)"/></mask>
</defs>
<rect width="1280" height="720" fill="#ece4ff"/>
<rect width="1280" height="720" fill="url(#p)" mask="url(#k)"/>
<rect width="1280" height="720" fill="url(#g)"/>
<rect x="540" y="200" width="200" height="200" rx="44" fill="#ffffff" stroke="#7c5cc4" stroke-opacity="0.25" stroke-width="2"/>
<g transform="translate(568 228) scale(6)" fill="none" stroke="#7c5cc4" stroke-width="1.6" stroke-linecap="round" stroke-linejoin="round"><path d="M21 15a2 2 0 0 1-2 2H7l-4 4V5a2 2 0 0 1 2-2h14a2 2 0 0 1 2 2z"/><path d="M8 10h.01"/><path d="M12 10h.01"/><path d="M16 10h.01"/></g>
<rect x="397" y="452" width="112.5" height="40" rx="20" fill="#ffffff" fill-opacity="0.75" stroke="" stroke-opacity="0.25"/><text x="453.25" y="478" text-anchor="middle" font-family="ui-monospace, SFMono-Regular, Menlo, Consolas, monospace" font-size="19" fill="#5a4a63">Next.js</text><rect x="521.5" y="452" width="112.5" height="40" rx="20" fill="#ffffff" fill-opacity="0.75" stroke="" stroke-opacity="0.25"/><text x="577.75" y="478" text-anchor="middle" font-family="ui-monospace, SFMono-Regular, Menlo, Consolas, monospace" font-size="19" fill="#5a4a63">Express</text><rect x="646" y="452" width="101" height="40" rx="20" fill="#ffffff" fill-opacity="0.75" stroke="" stroke-opacity="0.25"/><text x="696.5" y="478" text-anchor="middle" font-family="ui-monospace, SFMono-Regular, Menlo, Consolas, monospace" font-size="19" fill="#5a4a63">OpenAI</text><rect x="759" y="452" width="124" height="40" rx="20" fill="#ffffff" fill-opacity="0.75" stroke="" stroke-opacity="0.25"/><text x="821" y="478" text-anchor="middle" font-family="ui-monospace, SFMono-Regular, Menlo, Consolas, monospace" font-size="19" fill="#5a4a63">Supabase</text>
</svg>